<svg width="150" height="40" viewBox="0 0 64 16" fill="none" xmlns="http://www.w3.org/2000/svg"><rect x="2" width="61.0154" height="16" fill="white"/><path d="M7.46692 5.13867H4.50208V7.20117H7.22669V8.73633H4.50208V12H2.6095V3.59766H7.46692V5.13867ZM10.5255 12H8.67395V3.11719H10.5255V12ZM13.0216 5.05078C12.7091 5.05078 12.4532 4.95898 12.254 4.77539C12.0548 4.58789 11.9552 4.35938 11.9552 4.08984C11.9552 3.8125 12.0548 3.58594 12.254 3.41016C12.4532 3.23438 12.7091 3.14648 13.0216 3.14648C13.338 3.14648 13.5939 3.23438 13.7892 3.41016C13.9884 3.58594 14.088 3.8125 14.088 4.08984C14.088 4.37109 13.9884 4.60156 13.7892 4.78125C13.5939 4.96094 13.338 5.05078 13.0216 5.05078ZM13.9357 12H12.0841V6H13.9357V12ZM17.3693 11.3027H17.3458V14.7598H15.4943V6H17.3458V6.90234H17.3693C17.8263 6.20312 18.4689 5.85352 19.297 5.85352C20.0743 5.85352 20.674 6.12109 21.0958 6.65625C21.5216 7.1875 21.7345 7.91211 21.7345 8.83008C21.7345 9.83008 21.4865 10.6328 20.9904 11.2383C20.4982 11.8438 19.8419 12.1465 19.0216 12.1465C18.299 12.1465 17.7482 11.8652 17.3693 11.3027ZM17.3165 8.8418V9.32227C17.3165 9.73633 17.4259 10.0742 17.6447 10.3359C17.8634 10.5977 18.1505 10.7285 18.506 10.7285C18.9279 10.7285 19.254 10.5664 19.4845 10.2422C19.7189 9.91406 19.8361 9.45117 19.8361 8.85352C19.8361 7.79883 19.4259 7.27148 18.6056 7.27148C18.2267 7.27148 17.9161 7.41602 17.674 7.70508C17.4357 7.99023 17.3165 8.36914 17.3165 8.8418ZM34.1388 12.1348C33.9318 12.1348 33.7345 12.1074 33.547 12.0527C33.3634 11.998 33.1876 11.9238 33.0197 11.8301C32.8556 11.7363 32.6993 11.627 32.5509 11.502C32.4025 11.373 32.2618 11.2363 32.129 11.0918C31.9845 11.209 31.8107 11.3301 31.6075 11.4551C31.4044 11.5801 31.174 11.6934 30.9161 11.7949C30.6622 11.8926 30.381 11.9727 30.0724 12.0352C29.7638 12.1016 29.4337 12.1348 29.0822 12.1348C28.6251 12.1348 28.2013 12.0801 27.8107 11.9707C27.424 11.8613 27.09 11.6992 26.8087 11.4844C26.5275 11.2656 26.3068 10.9961 26.1466 10.6758C25.9904 10.3555 25.9122 9.98438 25.9122 9.5625C25.9122 9.23047 25.9708 8.93555 26.088 8.67773C26.2091 8.41602 26.3654 8.1875 26.5568 7.99219C26.7482 7.79688 26.965 7.62891 27.2072 7.48828C27.4493 7.34766 27.6954 7.23047 27.9454 7.13672C27.8243 7.04297 27.7013 6.93555 27.5763 6.81445C27.4552 6.68945 27.3458 6.55469 27.2482 6.41016C27.1505 6.26172 27.0704 6.10156 27.0079 5.92969C26.9493 5.75781 26.92 5.57617 26.92 5.38477C26.92 5.07617 26.9825 4.80273 27.1075 4.56445C27.2325 4.32617 27.4064 4.125 27.629 3.96094C27.8556 3.79688 28.1251 3.67188 28.4376 3.58594C28.7501 3.5 29.0939 3.45703 29.4689 3.45703C29.8282 3.45703 30.1564 3.50195 30.4532 3.5918C30.754 3.68164 31.0118 3.80664 31.2267 3.9668C31.4415 4.12695 31.6075 4.32031 31.7247 4.54688C31.8419 4.76953 31.9005 5.01562 31.9005 5.28516C31.9005 5.71875 31.7697 6.0957 31.5079 6.41602C31.2501 6.73242 30.8849 6.99023 30.4122 7.18945C30.5997 7.27539 30.7794 7.37305 30.9513 7.48242C31.1232 7.5918 31.2911 7.7168 31.4552 7.85742C31.6193 7.99805 31.7794 8.1582 31.9357 8.33789C32.0919 8.51367 32.2462 8.7168 32.3986 8.94727C32.7189 8.54492 32.9474 8.11719 33.0841 7.66406C33.2247 7.20703 33.295 6.73242 33.295 6.24023C33.295 6.0918 33.2853 5.94922 33.2657 5.8125C33.2501 5.67578 33.2228 5.54883 33.1837 5.43164H34.7599C34.8029 5.55664 34.8341 5.67773 34.8536 5.79492C34.8732 5.91211 34.8829 6.05078 34.8829 6.21094C34.8829 6.58984 34.8419 6.95898 34.7599 7.31836C34.6818 7.67773 34.5704 8.02148 34.4259 8.34961C34.2814 8.67773 34.1056 8.98828 33.8986 9.28125C33.6954 9.57422 33.4708 9.84766 33.2247 10.1016C33.4161 10.3008 33.6134 10.4551 33.8165 10.5645C34.0197 10.6699 34.2111 10.7227 34.3907 10.7227C34.5782 10.7227 34.7697 10.7031 34.965 10.6641C35.1603 10.6211 35.3302 10.5625 35.4747 10.4883V11.8828C35.2599 11.9688 35.047 12.0312 34.8361 12.0703C34.629 12.1133 34.3966 12.1348 34.1388 12.1348ZM29.1759 10.7344C29.4064 10.7344 29.6232 10.7129 29.8263 10.6699C30.0294 10.623 30.2208 10.5625 30.4005 10.4883C30.5802 10.4141 30.7462 10.3281 30.8986 10.2305C31.0548 10.1328 31.1974 10.0312 31.3263 9.92578C31.1271 9.61328 30.9298 9.34961 30.7345 9.13477C30.5392 8.91602 30.3458 8.73047 30.1544 8.57812C29.963 8.42188 29.7716 8.29102 29.5802 8.18555C29.3927 8.08008 29.2032 7.98438 29.0118 7.89844C28.8517 7.97656 28.6974 8.06445 28.549 8.16211C28.4044 8.25586 28.2755 8.36719 28.1622 8.49609C28.049 8.62109 27.9572 8.76562 27.8868 8.92969C27.8204 9.08984 27.7872 9.27539 27.7872 9.48633C27.7872 9.67383 27.8204 9.84375 27.8868 9.99609C27.9532 10.1484 28.047 10.2793 28.1681 10.3887C28.2931 10.498 28.4396 10.584 28.6075 10.6465C28.7794 10.7051 28.9689 10.7344 29.1759 10.7344ZM30.2599 5.41406C30.2599 5.30078 30.2384 5.19922 30.1954 5.10938C30.1525 5.01953 30.0939 4.94531 30.0197 4.88672C29.9454 4.82422 29.8615 4.77734 29.7677 4.74609C29.674 4.71094 29.5743 4.69336 29.4689 4.69336C29.34 4.69336 29.2208 4.71289 29.1115 4.75195C29.006 4.79102 28.9122 4.84375 28.8302 4.91016C28.7521 4.97656 28.6915 5.05664 28.6486 5.15039C28.6056 5.24023 28.5841 5.33789 28.5841 5.44336C28.5841 5.66211 28.6525 5.86328 28.7892 6.04688C28.9259 6.23047 29.0958 6.37891 29.299 6.49219C29.4279 6.44531 29.549 6.39062 29.6622 6.32812C29.7794 6.26562 29.881 6.19141 29.9669 6.10547C30.0568 6.01953 30.1271 5.91992 30.1779 5.80664C30.2325 5.69336 30.2599 5.5625 30.2599 5.41406ZM44.8029 5.13867H41.838V7.20117H44.5626V8.73633H41.838V12H39.9454V3.59766H44.8029V5.13867ZM46.9474 5.05078C46.6349 5.05078 46.379 4.95898 46.1798 4.77539C45.9806 4.58789 45.881 4.35938 45.881 4.08984C45.881 3.8125 45.9806 3.58594 46.1798 3.41016C46.379 3.23438 46.6349 3.14648 46.9474 3.14648C47.2638 3.14648 47.5197 3.23438 47.715 3.41016C47.9142 3.58594 48.0138 3.8125 48.0138 4.08984C48.0138 4.37109 47.9142 4.60156 47.715 4.78125C47.5197 4.96094 47.2638 5.05078 46.9474 5.05078ZM47.8615 12H46.0099V6H47.8615V12ZM55.215 12H53.3693V8.66602C53.3693 7.73633 53.0372 7.27148 52.3732 7.27148C52.0529 7.27148 51.7892 7.39453 51.5822 7.64062C51.3751 7.88672 51.2716 8.19922 51.2716 8.57812V12H49.42V6H51.2716V6.94922H51.295C51.7365 6.21875 52.379 5.85352 53.2228 5.85352C54.5509 5.85352 55.215 6.67773 55.215 8.32617V12ZM62.5568 12H60.7052V11.1738H60.6818C60.2599 11.8223 59.6407 12.1465 58.8243 12.1465C58.0743 12.1465 57.4708 11.8828 57.0138 11.3555C56.5568 10.8242 56.3282 10.084 56.3282 9.13477C56.3282 8.14258 56.5802 7.34766 57.0841 6.75C57.588 6.15234 58.2482 5.85352 59.0646 5.85352C59.838 5.85352 60.3771 6.13086 60.6818 6.68555H60.7052V3.11719H62.5568V12ZM60.7404 9.08203V8.63086C60.7404 8.24023 60.6271 7.91602 60.4005 7.6582C60.174 7.40039 59.879 7.27148 59.5157 7.27148C59.1056 7.27148 58.7853 7.43359 58.5548 7.75781C58.3243 8.07812 58.2091 8.51953 58.2091 9.08203C58.2091 9.60938 58.3204 10.0156 58.5431 10.3008C58.7657 10.5859 59.0743 10.7285 59.4689 10.7285C59.8439 10.7285 60.1486 10.5781 60.3829 10.2773C60.6212 9.97656 60.7404 9.57812 60.7404 9.08203Z" fill="black"/></svg>
