<svg width="105" height="105" viewBox="0 0 77 78" fill="none" xmlns="http://www.w3.org/2000/svg"><rect x="4" y="3" width="100" height="100" fill="white"/><path d="M15.7505 12.2773H9.82084V16.4023H15.2701V19.4727H9.82084V26H6.03568V9.19531H15.7505V12.2773ZM21.8677 26H18.1646V8.23438H21.8677V26ZM26.8599 12.1016C26.2349 12.1016 25.7232 11.918 25.3247 11.5508C24.9263 11.1758 24.7271 10.7188 24.7271 10.1797C24.7271 9.625 24.9263 9.17188 25.3247 8.82031C25.7232 8.46875 26.2349 8.29297 26.8599 8.29297C27.4927 8.29297 28.0044 8.46875 28.3951 8.82031C28.7935 9.17188 28.9927 9.625 28.9927 10.1797C28.9927 10.7422 28.7935 11.2031 28.3951 11.5625C28.0044 11.9219 27.4927 12.1016 26.8599 12.1016ZM28.688 26H24.9849V14H28.688V26ZM35.5552 24.6055H35.5083V31.5195H31.8052V14H35.5083V15.8047H35.5552C36.4693 14.4062 37.7544 13.707 39.4107 13.707C40.9654 13.707 42.1646 14.2422 43.0083 15.3125C43.8599 16.375 44.2857 17.8242 44.2857 19.6602C44.2857 21.6602 43.7896 23.2656 42.7974 24.4766C41.813 25.6875 40.5005 26.293 38.8599 26.293C37.4146 26.293 36.313 25.7305 35.5552 24.6055ZM35.4497 19.6836V20.6445C35.4497 21.4727 35.6685 22.1484 36.106 22.6719C36.5435 23.1953 37.1177 23.457 37.8286 23.457C38.6724 23.457 39.3247 23.1328 39.7857 22.4844C40.2544 21.8281 40.4888 20.9023 40.4888 19.707C40.4888 17.5977 39.6685 16.543 38.0279 16.543C37.2701 16.543 36.649 16.832 36.1646 17.4102C35.688 17.9805 35.4497 18.7383 35.4497 19.6836ZM69.0943 26.2695C68.6802 26.2695 68.2857 26.2148 67.9107 26.1055C67.5435 25.9961 67.1919 25.8477 66.856 25.6602C66.5279 25.4727 66.2154 25.2539 65.9185 25.0039C65.6216 24.7461 65.3404 24.4727 65.0747 24.1836C64.7857 24.418 64.438 24.6602 64.0318 24.9102C63.6255 25.1602 63.1646 25.3867 62.649 25.5898C62.1411 25.7852 61.5786 25.9453 60.9615 26.0703C60.3443 26.2031 59.6841 26.2695 58.981 26.2695C58.0669 26.2695 57.2193 26.1602 56.438 25.9414C55.6646 25.7227 54.9966 25.3984 54.4341 24.9688C53.8716 24.5312 53.4302 23.9922 53.1099 23.3516C52.7974 22.7109 52.6411 21.9688 52.6411 21.125C52.6411 20.4609 52.7583 19.8711 52.9927 19.3555C53.2349 18.832 53.5474 18.375 53.9302 17.9844C54.313 17.5938 54.7466 17.2578 55.231 16.9766C55.7154 16.6953 56.2076 16.4609 56.7076 16.2734C56.4654 16.0859 56.2193 15.8711 55.9693 15.6289C55.7271 15.3789 55.5083 15.1094 55.313 14.8203C55.1177 14.5234 54.9576 14.2031 54.8326 13.8594C54.7154 13.5156 54.6568 13.1523 54.6568 12.7695C54.6568 12.1523 54.7818 11.6055 55.0318 11.1289C55.2818 10.6523 55.6294 10.25 56.0747 9.92188C56.5279 9.59375 57.0669 9.34375 57.6919 9.17188C58.3169 9 59.0044 8.91406 59.7544 8.91406C60.4732 8.91406 61.1294 9.00391 61.7232 9.18359C62.3247 9.36328 62.8404 9.61328 63.2701 9.93359C63.6997 10.2539 64.0318 10.6406 64.2661 11.0938C64.5005 11.5391 64.6177 12.0312 64.6177 12.5703C64.6177 13.4375 64.356 14.1914 63.8326 14.832C63.3169 15.4648 62.5865 15.9805 61.6411 16.3789C62.0161 16.5508 62.3755 16.7461 62.7193 16.9648C63.063 17.1836 63.399 17.4336 63.7271 17.7148C64.0552 17.9961 64.3755 18.3164 64.688 18.6758C65.0005 19.0273 65.3091 19.4336 65.6138 19.8945C66.2544 19.0898 66.7115 18.2344 66.9849 17.3281C67.2661 16.4141 67.4068 15.4648 67.4068 14.4805C67.4068 14.1836 67.3872 13.8984 67.3482 13.625C67.3169 13.3516 67.2622 13.0977 67.1841 12.8633H70.3365C70.4224 13.1133 70.4849 13.3555 70.524 13.5898C70.563 13.8242 70.5826 14.1016 70.5826 14.4219C70.5826 15.1797 70.5005 15.918 70.3365 16.6367C70.1802 17.3555 69.9576 18.043 69.6685 18.6992C69.3794 19.3555 69.0279 19.9766 68.6138 20.5625C68.2076 21.1484 67.7583 21.6953 67.2661 22.2031C67.649 22.6016 68.0435 22.9102 68.4497 23.1289C68.856 23.3398 69.2388 23.4453 69.5982 23.4453C69.9732 23.4453 70.356 23.4062 70.7466 23.3281C71.1372 23.2422 71.4771 23.125 71.7661 22.9766V25.7656C71.3365 25.9375 70.9107 26.0625 70.4888 26.1406C70.0747 26.2266 69.6099 26.2695 69.0943 26.2695ZM59.1685 23.4688C59.6294 23.4688 60.063 23.4258 60.4693 23.3398C60.8755 23.2461 61.2583 23.125 61.6177 22.9766C61.9771 22.8281 62.3091 22.6562 62.6138 22.4609C62.9263 22.2656 63.2115 22.0625 63.4693 21.8516C63.0708 21.2266 62.6763 20.6992 62.2857 20.2695C61.8951 19.832 61.5083 19.4609 61.1255 19.1562C60.7427 18.8438 60.3599 18.582 59.9771 18.3711C59.6021 18.1602 59.2232 17.9688 58.8404 17.7969C58.5201 17.9531 58.2115 18.1289 57.9146 18.3242C57.6255 18.5117 57.3677 18.7344 57.1411 18.9922C56.9146 19.2422 56.731 19.5312 56.5904 19.8594C56.4576 20.1797 56.3911 20.5508 56.3911 20.9727C56.3911 21.3477 56.4576 21.6875 56.5904 21.9922C56.7232 22.2969 56.9107 22.5586 57.1529 22.7773C57.4029 22.9961 57.6958 23.168 58.0318 23.293C58.3755 23.4102 58.7544 23.4688 59.1685 23.4688ZM61.3365 12.8281C61.3365 12.6016 61.2935 12.3984 61.2076 12.2188C61.1216 12.0391 61.0044 11.8906 60.856 11.7734C60.7076 11.6484 60.5396 11.5547 60.3521 11.4922C60.1646 11.4219 59.9654 11.3867 59.7544 11.3867C59.4966 11.3867 59.2583 11.4258 59.0396 11.5039C58.8286 11.582 58.6411 11.6875 58.4771 11.8203C58.3208 11.9531 58.1997 12.1133 58.1138 12.3008C58.0279 12.4805 57.9849 12.6758 57.9849 12.8867C57.9849 13.3242 58.1216 13.7266 58.3951 14.0938C58.6685 14.4609 59.0083 14.7578 59.4146 14.9844C59.6724 14.8906 59.9146 14.7812 60.1411 14.6562C60.3755 14.5312 60.5786 14.3828 60.7505 14.2109C60.9302 14.0391 61.0708 13.8398 61.1724 13.6133C61.2818 13.3867 61.3365 13.125 61.3365 12.8281ZM25.4185 44.2773H19.4888V48.4023H24.938V51.4727H19.4888V58H15.7036V41.1953H25.4185V44.2773ZM29.7076 44.1016C29.0826 44.1016 28.5708 43.918 28.1724 43.5508C27.774 43.1758 27.5747 42.7188 27.5747 42.1797C27.5747 41.625 27.774 41.1719 28.1724 40.8203C28.5708 40.4688 29.0826 40.293 29.7076 40.293C30.3404 40.293 30.8521 40.4688 31.2427 40.8203C31.6411 41.1719 31.8404 41.625 31.8404 42.1797C31.8404 42.7422 31.6411 43.2031 31.2427 43.5625C30.8521 43.9219 30.3404 44.1016 29.7076 44.1016ZM31.5357 58H27.8326V46H31.5357V58ZM46.2427 58H42.5513V51.332C42.5513 49.4727 41.8872 48.543 40.5591 48.543C39.9185 48.543 39.3911 48.7891 38.9771 49.2812C38.563 49.7734 38.356 50.3984 38.356 51.1562V58H34.6529V46H38.356V47.8984H38.4029C39.2857 46.4375 40.5708 45.707 42.2583 45.707C44.9146 45.707 46.2427 47.3555 46.2427 50.6523V58ZM60.9263 58H57.2232V56.3477H57.1763C56.3326 57.6445 55.0943 58.293 53.4615 58.293C51.9615 58.293 50.7544 57.7656 49.8404 56.7109C48.9263 55.6484 48.4693 54.168 48.4693 52.2695C48.4693 50.2852 48.9732 48.6953 49.981 47.5C50.9888 46.3047 52.3091 45.707 53.9419 45.707C55.4888 45.707 56.5669 46.2617 57.1763 47.3711H57.2232V40.2344H60.9263V58ZM57.2935 52.1641V51.2617C57.2935 50.4805 57.0669 49.832 56.6138 49.3164C56.1607 48.8008 55.5708 48.543 54.8443 48.543C54.024 48.543 53.3833 48.8672 52.9224 49.5156C52.4615 50.1562 52.231 51.0391 52.231 52.1641C52.231 53.2188 52.4536 54.0312 52.899 54.6016C53.3443 55.1719 53.9615 55.457 54.7505 55.457C55.5005 55.457 56.1099 55.1562 56.5786 54.5547C57.0552 53.9531 57.2935 53.1562 57.2935 52.1641Z" fill="black"/></svg>
